REM DIRINDEX 1\2,1\3,1\4,1\5
REM DIRNAME "folder01","folder02","folder03","folder04","folder05"
TITLE ""
FILE "P1Q_t_0849-0858.mp3" MP3
  TRACK 01 AUDIO
    TITLE "0:"
    INDEX 01 00:00:00
  TRACK 02 AUDIO
    TITLE "3:cjc173_3493"
    INDEX 01 00:00:12
  TRACK 03 AUDIO
    TITLE "0:"
    INDEX 01 00:01:37
  TRACK 04 AUDIO
    TITLE "4:cjc173_3494"
    INDEX 01 00:01:61
  TRACK 05 AUDIO
    TITLE "0:"
    INDEX 01 00:03:52
  TRACK 06 AUDIO
    TITLE "5:cjc173_3495"
    INDEX 01 00:03:71
  TRACK 07 AUDIO
    TITLE "0:"
    INDEX 01 00:08:27
  TRACK 08 AUDIO
    TITLE "3:cjc173_3496"
    INDEX 01 00:08:74
  TRACK 09 AUDIO
    TITLE "0:"
    INDEX 01 00:10:38
  TRACK 10 AUDIO
    TITLE "4:cjc173_3497"
    INDEX 01 00:10:60
  TRACK 11 AUDIO
    TITLE "0:"
    INDEX 01 00:14:07
  TRACK 12 AUDIO
    TITLE "5:cjc173_3498"
    INDEX 01 00:14:26
  TRACK 13 AUDIO
    TITLE "0:"
    INDEX 01 00:19:59
  TRACK 14 AUDIO
    TITLE "3:cjc173_3499"
    INDEX 01 00:20:29
  TRACK 15 AUDIO
    TITLE "0:"
    INDEX 01 00:21:34
  TRACK 16 AUDIO
    TITLE "4:cjc173_3500"
    INDEX 01 00:21:59
  TRACK 17 AUDIO
    TITLE "0:"
    INDEX 01 00:24:73
  TRACK 18 AUDIO
    TITLE "5:cjc173_3501"
    INDEX 01 00:25:18
  TRACK 19 AUDIO
    TITLE "0:"
    INDEX 01 00:29:67
  TRACK 20 AUDIO
    TITLE "3:cjc173_3502"
    INDEX 01 00:30:41
  TRACK 21 AUDIO
    TITLE "0:"
    INDEX 01 00:31:48
  TRACK 22 AUDIO
    TITLE "4:cjc173_3503"
    INDEX 01 00:31:68
  TRACK 23 AUDIO
    TITLE "0:"
    INDEX 01 00:36:10
  TRACK 24 AUDIO
    TITLE "5:cjc173_3504"
    INDEX 01 00:36:28
  TRACK 25 AUDIO
    TITLE "0:"
    INDEX 01 00:40:49
  TRACK 26 AUDIO
    TITLE "3:cjc173_3505"
    INDEX 01 00:41:19
  TRACK 27 AUDIO
    TITLE "0:"
    INDEX 01 00:42:32
  TRACK 28 AUDIO
    TITLE "4:cjc173_3506"
    INDEX 01 00:42:54
  TRACK 29 AUDIO
    TITLE "0:"
    INDEX 01 00:44:66
  TRACK 30 AUDIO
    TITLE "5:cjc173_3507"
    INDEX 01 00:45:13
  TRACK 31 AUDIO
    TITLE "0:"
    INDEX 01 00:49:48
  TRACK 32 AUDIO
    TITLE "3:cjc173_3508"
    INDEX 01 00:50:18
  TRACK 33 AUDIO
    TITLE "0:"
    INDEX 01 00:51:27
  TRACK 34 AUDIO
    TITLE "4:cjc173_3509"
    INDEX 01 00:51:51
  TRACK 35 AUDIO
    TITLE "0:"
    INDEX 01 00:56:34
  TRACK 36 AUDIO
    TITLE "5:cjc173_3510"
    INDEX 01 00:56:54
  TRACK 37 AUDIO
    TITLE "0:"
    INDEX 01 01:02:09
  TRACK 38 AUDIO
    TITLE "3:cjc173_3511"
    INDEX 01 01:02:54
  TRACK 39 AUDIO
    TITLE "0:"
    INDEX 01 01:03:72
  TRACK 40 AUDIO
    TITLE "4:cjc173_3512"
    INDEX 01 01:04:18
  TRACK 41 AUDIO
    TITLE "0:"
    INDEX 01 01:06:44
  TRACK 42 AUDIO
    TITLE "5:cjc173_3513"
    INDEX 01 01:06:66
  TRACK 43 AUDIO
    TITLE "0:"
    INDEX 01 01:11:34
  TRACK 44 AUDIO
    TITLE "3:cjc173_3514"
    INDEX 01 01:12:08
  TRACK 45 AUDIO
    TITLE "0:"
    INDEX 01 01:13:35
  TRACK 46 AUDIO
    TITLE "4:cjc173_3515"
    INDEX 01 01:13:56
  TRACK 47 AUDIO
    TITLE "0:"
    INDEX 01 01:15:73
  TRACK 48 AUDIO
    TITLE "5:cjc173_3516"
    INDEX 01 01:16:19
  TRACK 49 AUDIO
    TITLE "0:"
    INDEX 01 01:21:28
  TRACK 50 AUDIO
    TITLE "3:cjc173_3517"
    INDEX 01 01:22:00
  TRACK 51 AUDIO
    TITLE "0:"
    INDEX 01 01:23:10
  TRACK 52 AUDIO
    TITLE "4:cjc173_3518"
    INDEX 01 01:23:31
  TRACK 53 AUDIO
    TITLE "0:"
    INDEX 01 01:24:64
  TRACK 54 AUDIO
    TITLE "5:cjc173_3519"
    INDEX 01 01:25:10
  TRACK 55 AUDIO
    TITLE "0:"
    INDEX 01 01:29:47
  TRACK 56 AUDIO
    TITLE "3:cjc173_3520"
    INDEX 01 01:30:19
  TRACK 57 AUDIO
    TITLE "0:"
    INDEX 01 01:31:33
  TRACK 58 AUDIO
    TITLE "4:cjc173_3521"
    INDEX 01 01:31:56
  TRACK 59 AUDIO
    TITLE "0:"
    INDEX 01 01:32:73
  TRACK 60 AUDIO
    TITLE "5:cjc173_3522"
    INDEX 01 01:33:18
  TRACK 61 AUDIO
    TITLE "0:"
    INDEX 01 01:37:06
